<mxfile host="app.diagrams.net" modified="2022-08-08T04:11:18.554Z" agent="5.0 (Windows NT 10.0; Win64; x64) AppleWebKit/537.36 (KHTML, like Gecko) Chrome/103.0.0.0 Safari/537.36" etag="6YTFd6N3tYMqWHVMTmN6" version="20.2.2" type="github">
  <diagram id="Har7aR1b0FeyOEbCbTkL" name="Page-1">
    <mxGraphModel dx="1038" dy="547" grid="1" gridSize="10" guides="1" tooltips="1" connect="1" arrows="1" fold="1" page="1" pageScale="1" pageWidth="850" pageHeight="1100" math="0" shadow="0">
      <root>
        <mxCell id="0" />
        <mxCell id="1" parent="0" />
        <mxCell id="j5Z5QR9LnZ4kiU0xMkHO-2" value="" style="rounded=1;whiteSpace=wrap;html=1;" vertex="1" parent="1">
          <mxGeometry x="80" y="230" width="730" height="230" as="geometry" />
        </mxCell>
        <mxCell id="j5Z5QR9LnZ4kiU0xMkHO-3" value="" style="rounded=1;whiteSpace=wrap;html=1;" vertex="1" parent="1">
          <mxGeometry x="100" y="260" width="90" height="180" as="geometry" />
        </mxCell>
        <mxCell id="j5Z5QR9LnZ4kiU0xMkHO-9" style="edgeStyle=orthogonalEdgeStyle;rounded=0;orthogonalLoop=1;jettySize=auto;html=1;" edge="1" parent="1" source="j5Z5QR9LnZ4kiU0xMkHO-4" target="j5Z5QR9LnZ4kiU0xMkHO-8">
          <mxGeometry relative="1" as="geometry" />
        </mxCell>
        <mxCell id="j5Z5QR9LnZ4kiU0xMkHO-4" value="" style="sketch=0;pointerEvents=1;shadow=0;dashed=0;html=1;strokeColor=none;fillColor=#505050;labelPosition=center;verticalLabelPosition=bottom;verticalAlign=top;outlineConnect=0;align=center;shape=mxgraph.office.concepts.service_application;" vertex="1" parent="1">
          <mxGeometry x="115.5" y="270" width="59" height="48" as="geometry" />
        </mxCell>
        <mxCell id="j5Z5QR9LnZ4kiU0xMkHO-10" style="edgeStyle=orthogonalEdgeStyle;rounded=0;orthogonalLoop=1;jettySize=auto;html=1;" edge="1" parent="1" source="j5Z5QR9LnZ4kiU0xMkHO-5" target="j5Z5QR9LnZ4kiU0xMkHO-8">
          <mxGeometry relative="1" as="geometry" />
        </mxCell>
        <mxCell id="j5Z5QR9LnZ4kiU0xMkHO-5" value="" style="sketch=0;pointerEvents=1;shadow=0;dashed=0;html=1;strokeColor=none;fillColor=#505050;labelPosition=center;verticalLabelPosition=bottom;verticalAlign=top;outlineConnect=0;align=center;shape=mxgraph.office.concepts.service_application;" vertex="1" parent="1">
          <mxGeometry x="115.5" y="324" width="59" height="48" as="geometry" />
        </mxCell>
        <mxCell id="j5Z5QR9LnZ4kiU0xMkHO-11" style="edgeStyle=orthogonalEdgeStyle;rounded=0;orthogonalLoop=1;jettySize=auto;html=1;" edge="1" parent="1" source="j5Z5QR9LnZ4kiU0xMkHO-6" target="j5Z5QR9LnZ4kiU0xMkHO-8">
          <mxGeometry relative="1" as="geometry" />
        </mxCell>
        <mxCell id="j5Z5QR9LnZ4kiU0xMkHO-6" value="" style="sketch=0;pointerEvents=1;shadow=0;dashed=0;html=1;strokeColor=none;fillColor=#505050;labelPosition=center;verticalLabelPosition=bottom;verticalAlign=top;outlineConnect=0;align=center;shape=mxgraph.office.concepts.service_application;" vertex="1" parent="1">
          <mxGeometry x="115.5" y="380" width="59" height="48" as="geometry" />
        </mxCell>
        <mxCell id="j5Z5QR9LnZ4kiU0xMkHO-7" value="&lt;b&gt;Event Resource&lt;/b&gt;" style="text;html=1;strokeColor=none;fillColor=none;align=center;verticalAlign=middle;whiteSpace=wrap;rounded=0;" vertex="1" parent="1">
          <mxGeometry x="120" y="235" width="50" height="20" as="geometry" />
        </mxCell>
        <mxCell id="j5Z5QR9LnZ4kiU0xMkHO-15" style="edgeStyle=orthogonalEdgeStyle;rounded=0;orthogonalLoop=1;jettySize=auto;html=1;" edge="1" parent="1" source="j5Z5QR9LnZ4kiU0xMkHO-8" target="j5Z5QR9LnZ4kiU0xMkHO-13">
          <mxGeometry relative="1" as="geometry" />
        </mxCell>
        <mxCell id="j5Z5QR9LnZ4kiU0xMkHO-16" style="edgeStyle=orthogonalEdgeStyle;rounded=0;orthogonalLoop=1;jettySize=auto;html=1;" edge="1" parent="1" source="j5Z5QR9LnZ4kiU0xMkHO-8" target="j5Z5QR9LnZ4kiU0xMkHO-14">
          <mxGeometry relative="1" as="geometry" />
        </mxCell>
        <mxCell id="j5Z5QR9LnZ4kiU0xMkHO-8" value="" style="sketch=0;pointerEvents=1;shadow=0;dashed=0;html=1;strokeColor=none;fillColor=#505050;labelPosition=center;verticalLabelPosition=bottom;verticalAlign=top;outlineConnect=0;align=center;shape=mxgraph.office.servers.trusted_application_server;" vertex="1" parent="1">
          <mxGeometry x="250" y="302.5" width="80" height="91" as="geometry" />
        </mxCell>
        <mxCell id="j5Z5QR9LnZ4kiU0xMkHO-12" value="&lt;b&gt;Stratus Event Manager&lt;/b&gt;" style="text;html=1;strokeColor=none;fillColor=none;align=center;verticalAlign=middle;whiteSpace=wrap;rounded=0;" vertex="1" parent="1">
          <mxGeometry x="230" y="270" width="80" height="30" as="geometry" />
        </mxCell>
        <mxCell id="j5Z5QR9LnZ4kiU0xMkHO-19" style="edgeStyle=orthogonalEdgeStyle;rounded=0;orthogonalLoop=1;jettySize=auto;html=1;" edge="1" parent="1" source="j5Z5QR9LnZ4kiU0xMkHO-13" target="j5Z5QR9LnZ4kiU0xMkHO-17">
          <mxGeometry relative="1" as="geometry" />
        </mxCell>
        <mxCell id="j5Z5QR9LnZ4kiU0xMkHO-13" value="Queue" style="sketch=0;outlineConnect=0;fontColor=#232F3E;gradientColor=none;strokeColor=#232F3E;fillColor=#ffffff;dashed=0;verticalLabelPosition=bottom;verticalAlign=top;align=center;html=1;fontSize=12;fontStyle=0;aspect=fixed;shape=mxgraph.aws4.resourceIcon;resIcon=mxgraph.aws4.queue;" vertex="1" parent="1">
          <mxGeometry x="365" y="260" width="60" height="60" as="geometry" />
        </mxCell>
        <mxCell id="j5Z5QR9LnZ4kiU0xMkHO-20" style="edgeStyle=orthogonalEdgeStyle;rounded=0;orthogonalLoop=1;jettySize=auto;html=1;" edge="1" parent="1" source="j5Z5QR9LnZ4kiU0xMkHO-14" target="j5Z5QR9LnZ4kiU0xMkHO-18">
          <mxGeometry relative="1" as="geometry" />
        </mxCell>
        <mxCell id="j5Z5QR9LnZ4kiU0xMkHO-14" value="Queue" style="sketch=0;outlineConnect=0;fontColor=#232F3E;gradientColor=none;strokeColor=#232F3E;fillColor=#ffffff;dashed=0;verticalLabelPosition=bottom;verticalAlign=top;align=center;html=1;fontSize=12;fontStyle=0;aspect=fixed;shape=mxgraph.aws4.resourceIcon;resIcon=mxgraph.aws4.queue;" vertex="1" parent="1">
          <mxGeometry x="365" y="368" width="60" height="60" as="geometry" />
        </mxCell>
        <mxCell id="j5Z5QR9LnZ4kiU0xMkHO-22" style="edgeStyle=orthogonalEdgeStyle;rounded=0;orthogonalLoop=1;jettySize=auto;html=1;" edge="1" parent="1" source="j5Z5QR9LnZ4kiU0xMkHO-17" target="j5Z5QR9LnZ4kiU0xMkHO-21">
          <mxGeometry relative="1" as="geometry">
            <Array as="points">
              <mxPoint x="550" y="290" />
              <mxPoint x="550" y="290" />
            </Array>
          </mxGeometry>
        </mxCell>
        <mxCell id="j5Z5QR9LnZ4kiU0xMkHO-17" value="Lambda Function" style="sketch=0;outlineConnect=0;fontColor=#232F3E;gradientColor=none;strokeColor=#232F3E;fillColor=#ffffff;dashed=0;verticalLabelPosition=bottom;verticalAlign=top;align=center;html=1;fontSize=12;fontStyle=0;aspect=fixed;shape=mxgraph.aws4.resourceIcon;resIcon=mxgraph.aws4.lambda_function;" vertex="1" parent="1">
          <mxGeometry x="470" y="268" width="44" height="44" as="geometry" />
        </mxCell>
        <mxCell id="j5Z5QR9LnZ4kiU0xMkHO-23" style="edgeStyle=orthogonalEdgeStyle;rounded=0;orthogonalLoop=1;jettySize=auto;html=1;" edge="1" parent="1" source="j5Z5QR9LnZ4kiU0xMkHO-18" target="j5Z5QR9LnZ4kiU0xMkHO-21">
          <mxGeometry relative="1" as="geometry">
            <Array as="points">
              <mxPoint x="550" y="398" />
              <mxPoint x="550" y="398" />
            </Array>
          </mxGeometry>
        </mxCell>
        <mxCell id="j5Z5QR9LnZ4kiU0xMkHO-18" value="Lambda Function" style="sketch=0;outlineConnect=0;fontColor=#232F3E;gradientColor=none;strokeColor=#232F3E;fillColor=#ffffff;dashed=0;verticalLabelPosition=bottom;verticalAlign=top;align=center;html=1;fontSize=12;fontStyle=0;aspect=fixed;shape=mxgraph.aws4.resourceIcon;resIcon=mxgraph.aws4.lambda_function;" vertex="1" parent="1">
          <mxGeometry x="470" y="376" width="44" height="44" as="geometry" />
        </mxCell>
        <mxCell id="j5Z5QR9LnZ4kiU0xMkHO-27" style="edgeStyle=orthogonalEdgeStyle;rounded=0;orthogonalLoop=1;jettySize=auto;html=1;entryX=0;entryY=0.5;entryDx=0;entryDy=0;" edge="1" parent="1" source="j5Z5QR9LnZ4kiU0xMkHO-21" target="j5Z5QR9LnZ4kiU0xMkHO-26">
          <mxGeometry relative="1" as="geometry" />
        </mxCell>
        <mxCell id="j5Z5QR9LnZ4kiU0xMkHO-21" value="" style="sketch=0;pointerEvents=1;shadow=0;dashed=0;html=1;strokeColor=none;fillColor=#505050;labelPosition=center;verticalLabelPosition=bottom;verticalAlign=top;outlineConnect=0;align=center;shape=mxgraph.office.servers.application_server;" vertex="1" parent="1">
          <mxGeometry x="570" y="270" width="120" height="150" as="geometry" />
        </mxCell>
        <mxCell id="j5Z5QR9LnZ4kiU0xMkHO-25" value="&lt;b&gt;Orchestrator Service&lt;/b&gt;" style="text;html=1;strokeColor=none;fillColor=none;align=center;verticalAlign=middle;whiteSpace=wrap;rounded=0;" vertex="1" parent="1">
          <mxGeometry x="576" y="238" width="60" height="30" as="geometry" />
        </mxCell>
        <mxCell id="j5Z5QR9LnZ4kiU0xMkHO-26" value="" style="rounded=1;whiteSpace=wrap;html=1;" vertex="1" parent="1">
          <mxGeometry x="730" y="256" width="70" height="178" as="geometry" />
        </mxCell>
        <mxCell id="j5Z5QR9LnZ4kiU0xMkHO-28" value="" style="shape=image;verticalLabelPosition=bottom;labelBackgroundColor=default;verticalAlign=top;aspect=fixed;imageAspect=0;image=data:image/jpeg,iVBORw0KGgoAAAANSUhEUgAAAgAAAAIACAYAAAD0eNT6AABDS0lEQVR42u2dC5AkWXWes7e7p3t62r08lofWYGIxBvMQi7TCEg/FDDtTj5nprqqe7erK6hk0xmGtCAkjgWwZIayBwIQUsmRZyCZCQdgmwg5bIUDipaclLAMhBdKYAbEWGALzFoLlLR6GZde+2ZPZk91VlXmzbt6892R+HVGxQtHzVfU95+b5K8/J/wYBP/zwww8//PDDT9GfM2dOLajXTanXAjx48ODBgwdPFq/omy8efcGDBw8ePHjwZPGKqo4l9VpOvZbmVR/w4MGDBw8evOp587x59IbHUq9lwz8GHjx48ODBg1chb543X1Gv1dRrxfCPgQcPHjx48OBVyJvnzaM3PJ56rRr+MfDgwYMHDx68CnkJU/cXo+nCNfU6kXpF//umOd8YHjx48ODBg1c9byEeGrxJ982jN1xPvU4Y/jHw4MGDBw8evGp5yQBhvgBIvflG6rVu+Mesw4MHDx48ePAq5S2knhrIFgDxL6+lPsDN8X9N/piEczM8ePDgwYMHrxJeMkB4LCUAFrJ+eTV162GDxYYHDx48ePBE8pKnBg4EQJ5SOH6k98Biw4MHDx48eLJ4a6mnBiIBsJTXI1hNCYATLDY8ePDgwYMnjpfU8EQALGfd+l+KFUIiANZYbHjw4MGDB08cL/3UwPFM06B4KGA5JQBWWWx48ODBgwdPJG8jJQBW84b+0gLAxK6Q4MGDBw8ePHhueYkAWMus5/E/Wkw9I0jxhwcPHjx48OTyNrRm+FICYIniDw8ePHjw4Inn6T29lxIAFH948ODBgwevKTzDE4VYbHjw4MGDB084j8WBBw8ePHjwKP4sDjx48ODBg0fxZ7HhwYMHDx48ij+LDQ8ePHjw4FH84cGDBw8ePHgUf3jw4MGDBw+ej8Vf++k/FhsePHjw4MGrBS+x/tc2CVpnseHBgwcPHjzxxX9JSwCkzhPeYLHhwYMHDx480cU/Oe8nWwDEv7wWf/vfYLHhwYMHDx48scV/JT7tdznT+j/+5dX42/966mxhFhsePHjw4MGTxVuNXwcCIE8pHE8JgHUWGx48ePDgwRPHW4vreSIAlvJ6BKspAXCCxYYHDx48ePDE8ZIangiA5axb/0uxQkgEwBqLDQ8ePHjw4InjJXfvEwGwklX8F2N1cCzVL2Cx4cGDBw8ePHm8jZQAWM0b+ksLgBVtlyAWGx48ePDgwfONlwiAtcx6Hv+jxdQzghR/ePDgwYMHTy5vQ2uGLyUAlij+8ODBgwcPnnie3tN7KQFA8YcHDx48ePCawpu38LPY8ODBgwcPXj14LA48ePDgwYNH8Wdx4MGDBw8ePIo/iw0PHjx48OBR/FlsePDgwYMHj+IPDx48ePDgwaP4w4MHDx48ePB8LP7aT/+x2PDgwYMHD14teIn1v7ZJ0DqLDQ8ePHjw4Ikv/ktaAiB1nvAGiw0PHjx48OCJLv7JeT/ZAiD+5bX42/8Giw0PHjx48OCJLf4r8Wm/y5nW//Evr8bf/tdTZwuz2PDgwYMHD54s3mr8OhAAeUrheEoArLPY8ODBgwcPnjjeWlzPEwGwlNcjWE0JgBMsNjx48ODBgyeOl9TwRAAsZ936X4oVQiIA1lhsePDgwYMHTxwvuXufCICVrOK/GKuDY6l+AYsNDx48ePDgyeNtpATAat7QX1oArGi7BBn+MZ3B+P/lvvrh5Evn38GD55jX6o2/0xqMv94ajL7Y6o0+1umN3t3pD3+n3R++Vv33n7e3di6cOdd/fNMubmpNHtnpjzutXviiTi98jXq9tTMYXVVr9nG1Vl9R6/Rt8g9e3XmW91siANYy63n8jxZTzwguVHXxIBngwYuEwuiT6r+vbw/GL2hvXXpc3Yp/63z/ye3e8IXtrdHroyJPvsCDty8AbO7fDa0ZvpQAWKqy+OcKAJILXmN54Yfb/fAXWv29p0kt/q1zd313u7/7SnWn4y+ILzx4kzzL+1fv6b2UAFio+uJBMsCDl9NGGIzvie4MnBwO130v/sPhcFF95rva/dEfd/qjB4gvPHizeV7s33kLfxlvTjLAg6crBEZfUXcF/vXpc/2/61vx73a7K93++EeVWPko8YUHT4/X+COCSQZ48IrxVB/9m53+7q+ePje4zfXF48qVKzd1+nv/UH22TxBfePCK8Rpd/CcEAMkFD54+byv8Ymc7fEF0293F/lVtiX8QT+4TD3jw5uA1uvgfEgAkAzx4c/JG19rbu7dXtX93dnaOq1bEv1FPLtxPPODBm5/X6OJ/IABIBnjwzHj7z82HL8u7G2C6fyOh0emN/5J4wINnzmt08Y/+HckAD16JvP74j1rblx5upfj3xs9Tk/3fJB7w4JXDa3Txj/49yQAPXrk81Zv/VNSfL2v/7g/6Dca/TDzgwSuX57L4az/9Z/O5Y5IBHrzyeZH9cGew1zfdvycvX15t9cM3Eg948MrnOaq/ifW/tknQuq3njkkGePAs+QZEQ3r98PnzXjw2NzfXWoPwvxEPePDs8BwV/yUtAZA6T3jDlukIyQAPnm3e8J/O880/midg/eDBs8dzUPyT836yBUD8y2vxt/8NW45FJAM8eBXwers/qbt/uzs7D1PF/w9YP3jw7PIqLv4r8Wm/y5nW//Evr8bf/tdTZwuXblpAMsCDZ5/X2tq9Xz27v5Nb/Ld3nx4NEbJ+8ODZ51U4c7cavw4EQJ5SOJ4SAOu2HIvq5qUMD96Rw3GOtXd2HnLuwt5jzvTC71OH5OypvH1FNFjXHozurfRipB7h6w7Gz571t6mzBtrXhweruliO7lOv97T7w/8QORqquw6dbu/ik6I7ENHZAuojLZB/8Hzmme6Piv7etbieJwJgKa9HsJoSACdsLnadvJThwSvyc/vtT1ls97af2e7tvKyyI3N7o8+eP7/ztycuZP3RD04842+j+G/tfkF9hte1e8PRmTPnbyVf4Enmme6PCv7epIYnAmA569b/UqwQEgGwZnux6+KlDA+e8UDs+QvPaPfHr576LbzE25CqFfCn0Z2J5LNEdydUUf681eLfH7+9tbXz3FObZ28hX+DVhWe6Pyx/vuTufSIAVrKK/2KsDo6l+gXWF7sOXsrw4JXJi26Btwfhq9QjeF+12IP8xei9rp/mF77LVvFXbY7fVjMFTye+8OrIM90flj/fRkoArOYN/aUFwIq2S5DhYkv3UoYHz5o43r74Xerb+n+1MYAUeQSoeYCT6vyA51sp/v3RB1rb4Z3EF16deaZ3xix/vkQArGXW8/gfLaaeEVyoarEleynDg1cFr9PbO6MK9ifLnmZWzI9FMwGlOhBeNx/6uajFQHzh1b5tZzgTY/nzbWjN8KUEwFKVxT9XAHjspQwPXpW804PnPrTVH7/N50ejoqcauv3RaeILryk80/1m+fPpPb2XEgALVS+2UC9lePBc8BbUbMAVP88eCD/Y2rp0G/GF1ySe6X7z4u+dt/CX8eYCvZThwXPKU14CL2xtjb7j0cFD79vcHN9CfOE1jVc3H5vK31yYlzI8eF7wOv3dy5G7nweOaJ9WBke3El94TeTVycfGyZsL8lKGB88rXnQnwHHxv691Ye9ZxANeU3l18bFx9uaCvJThwfOOdzAT4MILvT9+KfGA12ReHXxsnL65EC9lePB85S1MPB1QRfHvjd6tHvVbJB7wmsyT7mPjfLEFeCnDg+c1L3pEUO2FT1R4Ctp93a3wqcQDXtN5kn1svFhsz72U4cGT8U1EmQVVeATqq4kHPHhyfWxi5oLzxfbcSxkePEkXo1+3Xfyj8wnOnx89nHjAgyfWxyax/tc2CVpvqJcyPHhyLkbq7ICpBwiVeqpf+CriAQ9ehgDw28dmIXb8zRcAqfOENxrqpQwPnihe5MNvq/i3e+NvnD3bv414wIM3QwD47WOzkDrvJ1sAxL+8Fn/732iolzI8eKJ40VHCypnv6zbsgtv94euIBzx4MwSA3z42C/Epv8dSAiDzeODV+Nv/eupsYbyU4cHznKf2x6/aOCugvbVzknjAgzdFAPjvY7Mavw4EQJ5SOJ4SAOtn8FKGB08Er7W586yyi3+rP/oA8YAHb4oA8N/HZi2u54kAWMrrEaymBMCJM3gpw4MniqcK9j3lHhQ0/JfEAx68wzwBPjZJDU8EwHLWrf+lWCEkAmANL2V48OTx2r3dK2UeFNTdvOuZxAMevMM8z31skrv3iQBYySr+i7E6OJbqF+ClDA+eQF5n865nl3dQ0OgzxAMevEme5z42GykBsJo39JcWACvaLkGGiy3dSxkePB95t9/+lMVOb/yFcg4KGv0G8YAHT5yPTSIA1jLrefyPFlPPCC5UtdiSvZThwfOZ1xmMfquUUwK3wxcQD3jwxPnYbGjN8KUEwFKVxT9XAHjspQwPnu+8dn/8ypJOCXwG8YAHT5yPjd7TeykBsFD1Ygv1UoYHz3tedxBeKuOI4DPD4c3EAx68mvrYzFv4y3hzgV7K8OCJ4HW3d59uWvzbg9G9xAMevGb42FT+5sK8lOHBE8NrbV26zfiI4N74vcQDHrz6+9g4eXNBXsrw4InibW6ObzGdsVGDhFeJBzx49faxcfbmgryU4cETxet2uyumMzY6AoB4wGsqrw4+Nk7fXIiXMjx4InmmMzZ5AoB4wGsyT7qPjfPFFuClDE8AbzgcHmtvXXoc65dzgSq832YLAPIPXtN5kn1svFhsz72U4Ukp/oPxm1u98efO9ve+m/WbcYGaS2xPFwDkn0nbMxz/wKW9FV8+X7R/utvjkPg2x8cmZi44X2zPvZThCSn+ST7oiADOKy+y3yYFAPk3Py8xZ2r3R285tXn2Fh+K/8H+6Y9fTnwb4WOTWP9rmwStN9RLGZ6g4q8jAjivvOh+OywAyD/z4p/EQImAt8YiwH3xPyhc41cQ31r72CzEjr/5AiB1nvBGQ72U4Qkr/lkigPPK5xHbNwQA+Vde8U+JgLdE7QAvin/y+Xq7P09852ix+e9js5A67ydbAMS/vBZ/+99oqJcyPIHFf5oI4Lzyee+0XRcA5F/5xT+Jh8rl37zj7ruXvSj+yeu6CCC+RQSA3z42C/Epv8dSAiDzeODV+Nv/eupsYbyU4Yko/odEQG98O+eVz3unbXSV/LNX/G9YLuuLAJPPF71HbvE/eI1fQXw1BYD/Pjar8etAAOQpheMpAbB+Bi9leMKK/4EI2Arv7W7e9UzOK59bAJB/Fot/ERFQWfG/MRPwcuKbIwD897FZi+t5IgCW8noEqykBcOIMXsrwhBb/JE9aW6NEBHBeeaH1G14j/+wXfx0RUHnxLygCmLHx0scmqeGJAFjOuvW/FCuERACs4aUMT3rxvyECwnujdkCT1s90xuaIACCfLRb/LBHgrPhrigBmbLz0sUnu3icCYCWr+C/G6uBYql+AlzK8WhT/JF+KmAXVYf1MZ2xSAoB8rqD4TxMBzot/jgho8vXKcx+bjZQAWM0b+ksLgBVtlyDDxZbupQxPTvFPDwaevrD32CbEw3TGJhYA5HOFxT8tAkwcA6Pi3+qHbyql+M8QAU2/XnnuY5MIgLXMeh7/o8XUM4ILVS22ZC9lePZ4M7+5mJ5vHwmAfvjGkydPLjUhHubrty8AyOecn8jet8zifyAC5nQMtFL841d3e2/I9UqEj82G1gxfSgAsVVn8cy9QHnspwxNb/N+k87gV55Un65d/HDD5HATRN/WoWJdZ/Od1DLRZ/NXr9ZF45nolwsdG7+m9lABYqHqxhXopwxNY/Du98K1RW6FJ8TBfv+ICoKn5HBXpqFiXWfyLOgZS/GXN2Dj/e42StNzkkuKlDE9k8R//TrfbXWlaPMzXr5gAaHo+xyLgLTauf3k+ARR/iTM21dbLifopufg78FKGJ7P4/34Ti38ZMzZFBAD5fJ233w5QxdrG9W+WCIj+fypWv0XxlzZjEzqtv4Hk4l+xlzI8gcVfcf/w5OXLq02Nh/l+0xMA5PNhXpzTv2nj+ndUBFD8Jc/YuK2/geTiX7GXMjxp3/wH4dt3dnaONzke5vstXwCQz9N5hUTAnI6BFH/pMzZu66/8HgYXI4r/9OL/PzY3N9eaHg/z/ZYtAMjnbJ6WCDBwDKT4S5+xcVt/5fcwuBhR/I9eGHujd54cDteJh/l55VkCgHzW42WKAD+LA8W/shkbt/VXfg+DixHF/5DL3+hPer1/9LeIx5QL1Fz7bboAIJ+L8aaKAIo/MzYu628hAeBrD4OLEcX/YNp/9O5u9+IG8ZhygZp7v00KAPJ5Pt4hEUDxZ8bGcfHXFwAe/zEkq6ziP/U55XLy5c/PDIc3E48pFyij/XZYAJDP/joGUvwlzti4K/56AsDzP4Zkpfi3+uP/ef783oOJxyTPfL/dEADks/+OgRR/aTM2VRf/sIgA8PyPse+lLPTRlHCc53dfm2/+vfF72zs7D+FiNJ1nvt+uCwCKgxzHQIq/pBmbqou/tgDwv/h74aXsGS85kjTLNrQuxb89GP3F5ub4Fi5Gs3nm+210leIgzzGQ4i9lxqbq4q8lAMJJAeCpYyDJOln8s2xDa3PbfzC+p7uz8zAuRtk88/22LwAoDgIdAyn+EmZsqi7+uQIgnBQAHtsFk6zTi/80EVCj2/5/eedW+AguRvk88/02vEZxkOsYSPH3fcamono5lwAY+F38YwFA8Z9R/NMiILrdWI9v/uEHzw2Hj+RipMcz32+HBADFwRLPpmMgxd/nGZuK6uWMeh7o9gp8dQyk+GcX/wMRoAaOosEj2Y/6hR8+0wtv5WKkzzPfbwcCgOJgmVeBYyDF37sZm4rq5Yx6HuhMCtr04jddHIq//vpFjx7FIkDgbf/RR7rbFx/FxagYz/zisS8AKA4V8Cwf7LMvAJ7znJPHiIc/MzaV+BBk1PMg7zlB2178psWB4l9s/aI7AVE7QNg3//9zZnP4d7gYFeeZx2NfAFAc5Bf/mDd60+nTpx5KPPyYsXHtQxCYTReae/GbFgeKf/H1y3pEcN7iP/XiVY63/8fOXdh7DBej+Xjm8cg/Dph4SCn+CedABBAPxzM2rn0IShEALr2UKf7zrV8REeCq+KvXJ05f2HssF6P5eebxKC4AiIfPxf+GCIjaAcTD7YyNax8CYwHg2kuZ4j//+umIAFfFX322T7W3Lj2Oi5HbGZuiAoB4SCj+4aGhQOLhbsbGtQ9BGQLAbQ+jMcV/tGdjmnRex0DLt/3/6uxg9HguRuY883joCwDiUaz4T52Zqfy58tEbdEUA8S1/xsa1D0EgvofRkGQdDofH1KE3b7PxKElRx0Crxb8//kynd/EJXIzK4Znni54AIB4Si7++CCC+dmZsXPsQBOJ7GA1K1m63u6Jc8H7fxnOkuo6BVnv+vdFnu72LT6LYlMcroThcJR51Lv75IoD42puxMf18pvkiv4fRsGTd2dk5rh6Le7uNi0eeY6Ddnv/o3tb27lMoNuXyzItDtgAgHnUo/rNFAPH128fGNF/k9zAamKyt1qUT7d7onTYuHrMcAy1/8/98dyt8KsW/fF4J3wyvEo8mFP9JEUB8/fexMc0X+T2Mhl6Mtraee3O7t/tnNi4eRx0Drfb8B6Mvdnvh91Cs7fDMi8N0AUA8ihV/dXftzf4X/2QOJ3wjjoEyfGyMH+MX38No8sVo89yjI6c2GxePxDHQ7nP+oy+1B3t3UKzt8Uq4LXyVeDSn+N94Emf3zTgG+u9jU40A8LiH0fSLUbe79ZjO1uj9Ni4e1w8msXXbf/zl7vbu0ynWdnnmxeGwACAeHhX//vil6vUztsSEEgFvwTHQ7oyN6eezLwA872FwMTq1cf786OGtwfgen09tPHKk71fVwT4/QLG2zyuhJ3yVeBTnRY/tWiz+D6jXjx+0UXu7L7G1f6M7ATbODmHGphwfm+IxDosIAM97GCX4ENQlWe/cCh+hCusHfS/+6pv/37Qu7D2Li0c1PPP4XhcAxMOP4q9Msu5X3/r/8dHP1+4NX9ja2r3fxv6NZgLKPDuEGZvyfGyKF39tAeB5D6MkH4I6JeuZXnirituHvS3+g9HXlAf5D3LxqI5nHt/RVeLhzTf/+yJH0Fmfr70dXmr1xt+xsX+LiABmbKrzsSle/LUEQDgpAHzqYZToQ1C3ZFUXiEerdsBH/bvtP/56dzA+ycWjWp55fPcFAPFw/s1//C11Fsgg/3q6dyH6XRt3AnVEADM21frYFC/+uQIgnBQAPvUwSvYhqGOytrYu3RadpOdL8W/3xt9obYd3Uqyr55nHd3iNeLgt/tH+Ubf9O7qfTz1ae1bdafumjTuBWSKAGZvqfWy04zuXABh41sOw4ENQ12SNTtJTa/Zp57f91YVI3ZpsUazd8Mzje0gAEI8ZP93tcWhFbKuZmejOWeE7gb2950T/1sadwFYv3GG/+eFjox3fGfU80O0VOO9hWPIhqHOyti+M/75ao792eNv//6ri3yUe7njm8T0QAMQj73Zwf/zycsX26Euq2H6/QXF4RvS4bbl3AsOXsd/88bHRvj7PqOeBzqSg8x6GRR+CuidrazB8aru/+/nKi3/Uh9wOzxMPtzzz+O4LAOKhLwJeUVLP/3Ot/t7TjO9MKJfN6JwNir+fMzaV+BBk1PMg7zlBb3oYlnwImpCsrc27nt3q736pukf9Rt/u9MIe8XDPM4/vvgAgHkVuC/d2f95QbH/6zGD0xNLuTGyFT94/Zpvi792MjXMfAmMnoap6GJZ8CBqTrJsXTqkLwVcqsBu9T33r2CYefvDM45t/HDDxmPLNMBEBRb/5qyd4Tl/Ye2zZn6+9ufd4NY/zSYq/XzM2zn0IyhAAkr2Um5Ws4bNyB4MMi/+0ASHiIfe88nkEAPGI91vUDii0x0Yfih7jtfb5zvae0unvfoTi78+MjXMfAlMBIN1LuXE9YWXEEz2Tb6Hn/x118RoRD7945vEtJgCIx9H9lhoMzJ72f/+54fCRtj9fe3PwBNUO/ADF348ZG+c+BCUIANFeyk28uEXP5O8/W1xa8R/dHzmUURz845nHV18AEI8ZbZhcETC6enrw3IdWeXaI8ix4D8Xf/YyNcx8C8T0MLkbzfTNUxiLRY3qlFP/e+IcoDn7ySrBvvko8StlvL58Rg3d1uxc3qv58J/uXH9Tuh39K8TcUd459bIx9CMT3MLgYzc1rD/Y29yf252/DPKCK//MoDv7yzE1g8gUA8dAUY0dEgPoW/oet1qUTrj7fyeFwvd0b/THFf36eax8bYx8C8T0MktVwBmPvQjS8N0/xj04lozj4Hl9TE5hsAUA8CsYjFgHqsby3nbx8edX159vZ2TmuPtPvUvznvLPj2MfG9NFu+T0MktWYF9mYHpwipl/8f4T1859n7gA3WwAQj3nbnuFu5Kfvy+eLzjHobu8Nia88HxtTHwL5PQyStSQHs90f2j9PXCce2+GPsX5Sio2pA9x0AUA84MFz72Nj/Bi/+B4GyVqeg9nW7gvUY4IP5BT/F7J+cnjm9q+TAoB4wIOXIwAq8rGpRgB43MMgWUt+Tri3++KZ54H3whexfsLu7BgfTHNYABAPePByBECFPjb2BYDnPQyS1Yq95U9MWet/xvrJ45kfTHNDABAPePByBEDFPjbFa2ZYRAB43sMowYeA5J/lYBb+VCoPfpr1E9rWMT+S9irxgAdPQwA48LEpXvy1BYDnPYySfAhI/kwHs3+hnlX+WdZPLs/8COjRVeIBD16OAHDkY1O8+GsJgHBSAPjUwyjRh4Dkh1dnnvkR0PsCgHjAgzdLADj0sSle/HMFQDgpAHzqYZTsQ0Dyw6szz3TGptMfXiMe8OBN57n2sdGul3MJgIFnPQwLPgQkP7w680xnbI4IAOIBD17gj4+Ndr2cUc8D3V6B8x6GJR8Ckh9enXmmMzYpAUA84MEL/PKx0a6XM+p5oDMp6LyHYdGHgOSHV2ee6YxNLACIBzx4gX8+NibFP0MAeNjDsORDQPLDqzPPdMYmFgDEAx48D31sjH0IjJ2EquphWPIhIPnh1ZlnOmOjcxww8YDHjI0bHxtjH4IyBIBkL2WSH16deaYzNvMIAOIBryk81z42xj4EpgJAupcyyQ+vzjzTGZuiAoB4wGsSz7WPjbEPQQkCQLSXMskPr8480xmbIgKAeMBrGs+1j42xD4H4HgbJCg9e8Rab9n7TEwDEA14Tea59bIx9CMT3MEhWePCKCwDt/ZYvAIgHvKbyXPvYGPsQiO9hkKzw4BUTAIX2W7YAIB7wmsxz7WNj6kMgv4dBssKDpy8ACu+32QKAeMBrOs+1j42pD4H8HgbJCg+engCYS2xPFwDEAx489z42xo/xi+9hkKzw4OVfoOa+0zYpAIgHPHg5AqAiH5tqBIDHPQySFR68nAuUUZvtsAAgHvDg5QiACn1s7AsAz3sYJCs8eLN5pjM2aQFAPODByxEAFfvYFK+ZYREB4HkPowQfApIfXp15pjM2iQAgHvDg5QgABz42xYu/tgDwvIdRkg8ByQ+vzjzTGZtIABAPePByBIAjH5vixV9LAISTAsCnHkaJPgQkP7w680xnbGIBQDzgwZslABz62BQv/rkCIJwUAD71MEr2ISD54dWZZzpj0+kPrxEPePCm81z72GjXy7kEwMCzHoYFHwKSH16deaYzNkcEAPGABy/wx8dGu17OqOeBbq/AeQ/Dkg8ByQ+vzjzTGZuUACAe8OAFfvnYaNfLGfU80JkUdN7DsOhDQPLDqzPPdMYmFgDEAx68wD8fG5PinyEAPOxhWPIhIPnh1ZlnOmMTCwDiAQ+ehz42xj4Exk5CVfUwLPkQkPzw6swznbHROQ6YeMBjxsaNj42xD0EZAkCylzLJD6/OPNMZm3kEAPGA1xSeax8bYx8CUwEg3UvZ989n3sM1fQ4cnuSzKsz/3mICoJHPWbM/vOX5PmPjfH+UIABEeyn7/vnY7LJ50s8rLyIAGv2cNfvDS57vMzbO94f4Hobli5Eor2cuHt7xpJ9XrisAGv+cNfvDS57vMzbO94f4Hobli5EYr2c2u5c86eeV6wgAnrNmf/jK833Gxvn+EN/DoAfJZm9wD9L2DEueAOA5a/aHzzzfZ2xc7w/5PQx6kGz2Bvcgbc+wZAkAnrNmf/jO833GxvX+kN/DoAfJZm9wD9L2DMssAcBz1uwPCTzfZ2yc7o9CAsDXHgY9SDZ7g3uQtmdYpgkAnrNmf0jh+T5j42x/FBIAHvcw6EGy2Zvcg7Q9w3JUAEg7y8D9+rE/XPLwiTEVAJ73MOhBstmb3IO0PcOSFgASzzJwv37sD5c8fGKyz/oJcn/Z5x5GBc9Z04OEJ/msCvO/97oAkHqWgfv1Y3+45OETk33Sb2BS/J32MCp6zpoeJDzJZ1WY/72jq5LPMnC/fuwPlzx8Yo4Wfy0BEE4KAE+97ulBstmb3IO0PcMSCwCxZxm4Xz/2h0sePjFHi3+uAAgnBYDHXvf0INnsTe5B2p5h6fSH1ySfZeB+/dgfLnn4xCSfaR4BMPDf654eJJu9yT1I2zMsRwSAuLMM3K8f+8MlD5+YowJgXEQA+O91Tw+Szd7kHqTtGZaUABB5loH79WN/uOThE5MWAOMiAkCG173r56zhwfOZZ37x3RcAxAMevECoT0xGPQ/ynhP03eueZIUHz94MSywAiAc8eDX0iTF3EhLe4yP54dWZZ37bNf84YOIBr6k86T4xpQgAyT0+kh9enXnmPdfiAoB4wGsKT7pPjLEAkO6lTPLDqzPPfOCqmAAgHvCaxJPuE1OGABDtpUzyw6szz3zaWl8AEA94TeNJ94kJxPcwSFZ48Iq32LT3m54AIB7wmsiT7hMTiO9hkKzw4BUXANr7LV8AEA94TeVJ94mR38MgWeHBKyYACu23bAFAPOA1mSf9rAr5PQySFR48fQFQeL/NFgDEA17TedLPqpDfwyBZ4cHTEwBzie3pAoB4wIMn/KyKQgLA1x4GyQoPXv4Fau47bZMCgHjAg5cjAHw/q6KQAPC4h0GywoOXc4EyarMdFgDEAx68HAFQoY+NfQHgeQ+DZIUHbzbP/FS1GwKAeMCDlyMAKvaxKV4zwyICwP/ztklWePBm88yPVL0uAIgHPHg5AsCBj03x4q8tAGSct02ywoM3m2d+PvvoKvGABy9HADjysSle/LUEQDgpAHzqYZToQ1B3r2fz58DhST6rwvzv3RcAPGdNPovk2d5vrj9f8eKfKwDCSQHgUw+jZB+Cuns9c/Fwy3P9zcb87x1e4zlr8lkqz/cZm8r2x1wCYOBZD8OCD0HdvZ65eLjlub6taf73HhIAPGfN/hDF833GprL9MaOeB7q9Auc9DEs+BHX3eubi4Zbnuqdp/vceCACesyafxfF8n7GpbH/MqOeBzqSg8x6GxR4fPUh4knuQtmdYYgHAc9bks0ie7zM2leyPjHoe5D0n6E0Pw1KPjx4kPMk9SNszLLEA4Dlr8lkkz/cZG+f7w9hJSHiPjx4kPMk9SNszLDrHAfOcNfvDV57vMzbO90cZAkByj48eJDzJPUjbMyzzCIBGPmfN/vCS5/uMjfP9YSoApPf46EHCk9yDtD3DUlQANPI5a/aHtzx8YuwLANE9PnqQ8CT3IG3PsBQRAI1+zpr94SUPnxibAsCHHgY9SDZ7g3uQtmdYdAVA45+zZn94ycMnxpYA8KWHQQ+Szd7gHqTtGRYdAcBz1uwPX3n4xNgQAD71MOhBstkb3IO0PcOSJwB4zpr94TMPn5iyBYBvPQx6kGz2Bvcgbc+wZAkACWcZuF8/9odLHj4xZQoAH3sY9CDZ7A3uQdqeYZklAKScZeB+/dgfLnn4xJQlAHztYdCDZLM3uAdpe4ZlmgCQdJaB+/Vjf7jk4RNThgDwuIfh+jlrePB85plffA8LAOIBD155MyKmn8++APC8h0GywoNnb4YlLQCIBzx45c6ImH6+4jUzLCIA/Pe6J1nhwbM3w5IIAOIBD175MyKmn6948dcWADK87klWePDszbBEAoB4wIOXIwB894k5KP5aAiCcFACeet2TrPDgzeaZD1ztCwDiAQ/eLAHgu0/MoeKfKwDCSQHgsdc9yQoP3mye+bT18BrxgAdvOk+MT8xcAmDgv9c9yQoPnr0ZmyMCgHjAgxcI9ImZUc8D3V6Br173JCs8ePZmbFICgHjAgxcI9YmZUc8DnUlBn73uSVZ48OzN2MQCgHjAgxcIPasio54Hec8J+u51T7LCg2dvxiYWAMQDHrwanlVh7iRUVQ/DkdczPHiSeeb2qvnHARMPeMzYyDyrohQBINlLmeSHV2eeubd6cQFAPOA1hSf9rApjASDdS5nkh1dnnvnBKsUEAPGA1ySeax8bYx+CEgSAaC9lkh9enXnmp6rpCwDiAa9pPNc+NsY+BOJ7GCQrPHjFW2za+01PABAPeE3kufaxMfYhEN/DIFnhwSsuALT3W74AIB7wmspz7WNj7EMgvodhORlEeD0bH/kKzxZP+nnleQKA56zZHz7zbO8315/PdP3k9zAsX4zEeD2z2b3kST+vPEsA8Jw1+8N3nu8zNq73h/wehuWLkRivZza7lzzp55XPEgA8Z83+kMDzfcbG6f4oJAB87WEEeD2z2f3lue5pmv+9kwKA56zZH1J4vs/YONsfhQSAxz0MepBs9ib3IG3PsBwVADxnzf6QxPN9xsbJ/igkADzvYdCDZLM3uQdpe4YlLQB4zpp8lsbzfcam8v1x5KyfIPeXfe5hlNDjowcJT3IP0vYMSyIAeM6afJbI833GptL9MeWk38Ck+DvtYZTU46MHCU9yD9L2DEskAHjOmnyWyvN9xqay/XFQ/LUEQDgpAHzqYVT4nDU9SHiSz6ow/3v3BYDYswzcrx/7wyUPn5ijxT9XAISTAsCnHkbFz1nTg4Qn+awK8793eE3yWQbu14/94ZKHT0zymeYRAAPPehgOnrOmBwlP8lkV5n/vIQEg7iwD9+vH/nDJwyfmqAAYFxEAHvUwHD1nTQ8SnuSzKsz/3gMBIPIsA/frx/5wycMnJi0AxkUEgAyve3qQbPYm9yBtz7DEAkDsWQbu14/94ZKHT0x2PQ/ynhP03eueHiSbvck9SNszLLEAEHuWgfv1Y3+45OETE1o6DtgTr3t6kGz2Jvcgbc+w6BwHzHPW7A9fefjEjO0LAMk9PnqQ8CT3IG3PsMwjABr5nDX7w0sePjGWBYD0Hp/Lixs8eL7PsBQVAMQDXpN40n1iyhAAont8JD+8OvPMv3npCwDiAa9pPOk+MYH4HgbJCg+etRkWXQFAPOA1kSfdJyYQ38MgWeHBKy4AtPdbvgAgHvCaypPuEyO/h0GywoNXTAAU2m/ZAoB4wGsyT7pPjPweBskKD56+ACi832YLAOIBr+k86T4x8nsYJCs8eHoCYC6xPV0AEA948IT7xBQSAL72MEhWePDyL1Bz32mbFADEAx68HAHgu09MIQHgcQ+DZIUHL+cCZdRmOywAiAc8eDkCwPezKgoJAM97GCQrPHizeeYOazcEAPGABy9HAPh+VsWRs36C3F/23OueZIUHbzbP3F71ugAgHvDg5QgA38+qmHLSb2BS/H3wuidZ4cGbzTP3Vh9dJR7w4OUIAN/Pqjgo/loCIJwUAJ6et02ywoM3m2d+sMq+ACAe8ODNEgAOfWyKF/9cARBOCgCPz9smWeHBm80zP1VteI14wIM3nefax0a7Xs4lAAb+n7dNssKDZ2/G5ogAIB7w4AX++Nho18sZ9TzQ7RX4et42yQoPnr0Zm5QAIB7w4AV++dho18sZ9TzQmRR03sOw6ENQd69n8+fA4Uk+q8L8790XADxnTT6L5Pk+Y1PJ/sio50Hec4Le9DAs+RDU3euZi4dbnutvNuZ/774A4Dlr8lkkz/cZG+f7w9hJqKoehiUfglp7PXPxcM5zfVvT/O/NPw7Y5m1XUc9Zsz+84/k+Y+N8f5QhACR7Kfv++djssnmue5rmf29xAdDI56zZH17yfJ+xcb4/TAWA9B4fPUh4knuQtmdYigqARj5nzf7wluf7jI3z/VGCABDd46MHCU9yD9L2DEsRAdDo56zZH17yfJ+xcb4/xPcw6EGy2Rvcg7Q9w6IrABr/nDX7w0ue7zM2zveH+B4GPUg2e4N7kLZnWHQEAM9Zsz985fk+Y+N8f4jvYdCDZLM3uAdpe4YlTwDwnDX7w2cePjFlCwDfehj0INnsDe5B2p5hyRIAEs4ycL9+7A+XPHxiyhQAPvYw6EGy2Rvcg7Q9wzJLAEg5y8D9+rE/XPLwiSlLAPjaw6AHyWZvcA/S9gzLNAEg6SwD9+vH/nDJwyemDAHgcQ+DHiSbvck9SNszLEcFgLSzDNyvH/vDJQ+fGFMB4HkPgx4km73JPUjbMyxpASDxLAP368f+cMnDJyb7rJ8g95c997qnB8lmb3IP0vYMSyIApJ5l4H792B8uefjEZJ/0G5gUfx+87ulBstmb3IO0PcMSCQDJZxm4Xz/2h0sePjFHi7+WAAgnBYCnXveun7OGB89nnvnFd18AEA948CzMiJh+vuLFP1cAhJMCwGOve5IVHjx7Myyd/vAa8YAHz86MiOnn066XcwmAgf9e9yQrPHj2ZliOCADiAQ9eINAnZkY9D3R7Bb563ZOs8ODZm2FJCQDiAQ9eINQnZkY9D3QmBX32uidZ4cGzN2MTCwDiAQ9eINQnJqOeB3nPCfrudU+ywoNnb8YmFgDEAx68GvrEmDsJVdXD8PQ5a3jwfOaZP2qVfxww8YDHjI1Mn5hSBIBkL2WSH16deebPWRcXAMQDXlN40n1ijAWAdC9lkh9enXnmJivFBADxgNcknvSzKsoQAKK9lEl+eHXmmTus6QsA4gGvaTzpZ1UE4nsYJCs8eMVbbNr7TU8AEA94TeRJP6siEN/DIFnhwSsuALT3W74AIB7wmsqTflaF/B4GyQoPXjEBUGi/ZQsA4gGvyTzXPjamPgTyexgkKzx4+gKg8H6bLQCIB7ym81z72Jj6EMjvYZCs8ODpCYC5xPZ0AUA84MFz72Nj/Bi/+B4GyQoPXv4Fau47bZMCgHjAg5cjACrysalGAHjcwyBZ4cHLuUAZtdkOCwDiAQ9ejgCo0MfGvgDwvIdBssKDN5tnOmOTFgDEAx68HAFQsY9N8ZoZFhEAnvcwSvAhIPnh1ZlnOmOTCADiAQ9ejgBw4GNTvPhrCwDPexgl+RCQ/PDqzDOdsYkEAPGABy9HADjysSle/LUEQDgpAHzqYZToQ0Dyw6szz3TGJhYAxAMevFkCwKGPTfHinysAwkkB4FMPo2QfApIfXp15pjM2nf7wGvGAB286z7WPjXa9nEsADDzrYVjwISD54dWZZzpjc0QAEA948AJ/fGy06+WMeh7o9gqc9zAs+RCQ/PDqzDOdsUkJAOIBD17gl4+Ndr2cUc8DnUlB5z0Miz4EJD+8OvNMZ2xiAUA84MEL/POxMSn+GQLAwx6GJR8Ckh9enXmmMzaxACAe8OB56GNj7ENg7CRUVQ/Dkg8ByQ+vzjzTGRud44CJBzxmbNz42Bj7EJQhACR7KZP88OrMM52xmUcAEA94TeG59rEx9iEwFQDSvZRJfnh15pnO2BQVAMQDXpN4rn1sjH0IShAAor2USX54deaZztgUEQDEA17TeK59bIx9CMT3MEhWePCKt9i095ueACAe8JrIc+1jY+xDIL6HQbLCg1dcAGjvt3wBQDzgNZXn2sfG2IdAfA+DZIUHr5gAKLTfsgUA8YDXZJ5rHxtTHwL5PQySFR48fQFQeL/NFgDEA17Tea59bEx9COT3MEhWePD0BMBcYnu6ACAe8OC597ExfoxffA+DZIUHL/8CNfedtkkBQDzgwcsRABX52FQjADzuYZCs8ODlXKCM2myHBQDxgAcvRwBU6GNjXwB43sMgWeHBm80znbFJCwDiAQ9ejgCo2MemeM0MiwgAz3sYJfgQkPzw6swznbFJBADxgAcvRwA48LEpXvy1BYDnPYySfAhIfnh15pnO2EQCgHjAg5cjABz52BQv/loCIJwUAD71MEr0ISD54dWZZzpjEwsA4gEP3iwB4NDHpnjxzxUA4aQA8KmHUbIPAckPr8480xmbTn94jXjAgzed59rHRrteziUABp71MCz4EJD88OrMM52xOSIAiAc8eIE/Pjba9XJGPQ90ewXOexiWfAhIfnh15pnO2KQEAPGABy/wy8dGu17OqOeBzqSg8x6GRR8Ckh9enXmmMzaxACAe8OAF/vnYmBT/DAHgYQ/Dkg8ByQ+vzjzTGZtYABAPePA89LEx9iEwdhKqqodhyYeA5IdXZ57pjI3OccDEAx4zNm58bIx9CMoQAJK9lEl+eHXmmc7YzCMAiAe8pvBc+9gY+xCYCgD355WbzRDAg2fIe6DTG3270xt/udUbfVL9972d/vh324PRa1U77ae7vdGF7tb2954713mwxPPKiwqAMi6+7Z2dh3QH45NqHX+kPRj/Qqc/emN7a/iuztbog2qN/7qzFX5Nfbb7yD940nnOfQhKEACOzysnueD5z2v1d/+m0999R6e3+6+USGifvHx5tYpvNuZ/r74AmOfzXbly5ab2YO8O9V4vVu/1BvXfj5Mv8JrCc+5DIL2HQXLBk8hr98bfUHcJfrs9CH94c3N8i61v1uZ/r54AKPL5Njc311q9cEetwX9Sa3Av+QKvqTznPgTSexgkF7wa8O5r9cdva/fHd91x993LZd5WN/98+QJA8/MtdPuj0+p9/rNifo18gQfP3MfG2IdAeg+D5IJXJ54SAp9Rve+Xt7YvPbyMnrr558sWAHmfr9u9uKG+7b9IzUN8mPjCg1euj43p5wuk9zBILni15PVH31S3x1/TOt9/otsZm9kCIKv4R20Nxf651mD0FeILD54dHxvTzxdI72GQXPDqzGttjb6lhgd/rdvtPdbNjM10ATCr+J+6cGFj/w7GIPwq8YUHz66PjfFj/NJ7GCQXvEbwtsLom/RPnjx5cqnaGZtJATDtYnTq1LNvbvfCy+oxvb8ivvDgVeNjU40A8LiHQXLBaxKvNRjf0+6PnlndjM1hATDtYhT5HKge/zuILzx4xXimA7b2BYDnPQySC17TeOpb9v3tfvhLeV4C5czY3BAAR/ev+tb/oHZv+JLokUbiCw/eHF78hk/XFP+MYREB4HkPg+SC12Reb/x+1Rp4st0Zm+sC4Oj+PX229/eUA+LbiQc8eAZe/FWe9THlpN/ApPg77WGQXPDg7RsKqYG7y/ZmbEZXJ9p2Wzvd1tbuZ4gHPHiGXvxVnfVxUPy1BEA4KQB86mGQXPDgHRYC/fG/jQYEy5+x2RcAB7x2b/fHO1u73yYe8OCZ8yo56+NQ8c8VAOGkAPCph0FywYM3qyXwB2fPDm4td8ZmeC3V7/8V4gEPXnm8ys76mEsADDzrYZBc8OBl8tQTAu9rnR88rrwZm+G106dPPbTVH/068YAHr1xeZWd9zKjngW6vwHkPg+SCB0+Lp04e/NDZs1tPKGPGRhX+e1q93bcQD3jwyudVdtbHjHoe6EwKOu9hWPQhqPp8dnj14kXH2UaP40Xe/WcGoye2t8NWdMKfys1fVs/s//epjnhVXIz6ow+d6YW3Ch9w/N/7hwf1w59SMw6Dzvbu957Z2n1Up9N6xLlznQeTf/Bc8tTjuO813R+VnPWRUc+DvOcEvelhWPIhIPnh2eRFAkEV4u9rD8YvUReMP1H5+0B1pkHh/xJV/HvjLygb4depa9Bud2fnYeQfPJ95ra3hu033h+nnM/YhMHYScnxeOckKTxJPHe7zZDVJf0X5+3+E26RR0R99W5ka/Ua3Pz6XZXNM/sHzjdfeGr7TdH+Yfj5jH4IyBIDL88pJVngSefve+dujc+ob7x81svirb/vqtv4rO9sXv4t8gSeRFz11Y7o/TD+fsQ+BqQBwfV45yQpPOq87GD9bzQu8oxHFvzf+shI9Lz05HK6TL/Ak8zq98K2m+8P08xn7EJQgANz2MEhWeDXhdQZ7F1ROf7yOxX///ILB6N9tbo5vIV/g1YGnTLLeYLo/TD+fsQ+B+B4GyQqvRrxW69IJdWv8V1RuP1Cbb/698Xvbg707iC+8OvHUUyr/xXR/mH4+Yx8C8T0MkhVeDXmt7fBOld+fllz8r3/rD191x913LxNfeHXjqdz+j6b7zfTzGfsQiO9hkKzwasqLHoVT/fK3i/zm3xt9NhIxxBdeXXlqBuDXXPvYmO7fQHwPg2SFV2OesuF9cLs/fK2k4q88D96jLIkfTXzh1Zmn8v/Vrn1sTPdvIL6HQbLCawCv0xv+rIhv/v3x70VzDMQXXt15ag/8omsfG+PH+MX3MEhWeA3hqT3y/KnDgd4M/I3eWLTfT3zhSeVF8y2ufWyqEQAe9zBIVnhN4imb3Of7WvyznPyIL7y68ZQAuOLax8a+APC8h0GywmsaT/XYf8a32/5884fXNF50vodrH5viezgsIgA872GU4ENA8sOTyFOmOq/15Dn/P6fnD6+JPJX7L3btY1O8+GsLAM97GCX5EJD88CTyom/cKv/f5Xja/1M6Xv7EF14deZ3t8Mdc+9gUL/5aAiCcFAA+9TBK9CEg+eFJ5aljhm9t9cafc2PyM/5Wqxd+P/GA11SemgH4Ydc+NsWLf64ACCcFgE89jJJ9CEh+eJJ5rf54y4W9rzrC958QD3hN5rV74WXXPjba+3cuATDwrIdhwYeA5IcnnaeG8P59pcV/MPo94gGv6bxOf/g81z422vt3Rj0PdHsFznsYlnwISH540nmnehcfovbDZys51W8QfrW7ffFRxANe03mdzZ2Lrn1stPfvjHoe6EwKOu9hWPQhIPnh1eJitLX7o1XYBatb/z9BPODBO3Vzu7+z69rHxqT4ZwgAD3sYlnwISH54deCdOvXsByn//ffZLP7q2/8Hi5j9EF94dea1N4d91z42xj4Exk5CVfUwLPkQkPzw6sJT30gu2D0rYO8C8YAH7/qrtTnsuvaxMfYhKEMAVNLDsORDQPLDqxNPPRXwZzaKf2swfp966wXiAQ/edV6rN3qGax8bYx8CUwFQSQ/Dog8ByQ+vTjz1bP6OjbMCuoPwEvGAB+8Gr9sLv8e1j42xD0EJAsBtD4NkhQfvgDccDhfVvvh4mcU/MhtS3GPEAx68G7xu7+KTXPvYGPsQiO9hkKzw4B36mXlK2ZxiW03+/xLxgAfvMK+9delxrn1sjH0IxPcwSFZ48A79tLYu3VbmQUHRrU7iAQ/ekVM5+6NHu/axMfYhEN/DIFnhwZvcV73Ru8so/mr476PEAx68Sd6dW+EjXPvYmPoQBOJ7GCQrPHiTAqA/fmkppwT2wtcQD3jwJn9O9i8/yLWPjakPQSC+h0GywoM32Qbo7z2tjFMCo6cKiAc8eJM/m5uba659bIwf4xffwyBZ4cGb+Lly5cpNrcHoi6YzNtGRw8QDHrzJn/iJG6c+NtUIAI97GFWeggYPHjx48OCVxTMVJ/YFgOc9DJILHjx48OBJ5JnemSj+GcMiAsDzHgbJBQ8ePHjwhPJM2xLFi7+2APC8h0FywYMHDx48wTzTmYTixV9LAISTAsCnHgbJBQ8ePHjwhPNMBxKLF/9cARBOCgCfehgkFzx48ODBqwHP9GkE7c83lwAYeNbDILngwYMHD15NeKaPImp/vhn1PNDtFTjvYZBc8ODBgwevRjxjx0/dzzejngc6k4LOexgkFzx48ODBqxnP1NTIpPhnCAAPexgkFzx48ODBqxHP1NHQ2IfA2Emoqh4GyQUPHjx48GrEM7UzNvYhKEMAVNLDILngwYMHD16NeKZnGRj7EJgKgEp6GCQXPHjw4MGrGc/0ICNjH4ISBIDTHgbJBQ8ePHjwJPJMTzE09iGQ3sMgueDBgwcPnkSe6RHGxj4E0nsYJBc8ePDgwZPIMyn+B6fpmvgQuO5hmM4QwIMHDx48eE3kmYqTwHUPg2SABw8ePHjwivNM70wErnsYJAM8ePDgwYNXnGf8GL/rHgbJAA8ePHjw4BXnVSMAMgYiCB48ePDgwYNXPc++AMiZhiR48ODBgwcPXvW84kU/LCIA8h+FIHjw4MGDBw9e9bzixV9bAOg9B0nw4MGDBw8evOp5xYu/lgAIJwWAxnHABA8ePHjw4MGrhle8+OcKgHBSAGgcB0zw4MGDBw8evOp42jN8cwmAgcZ5wgQPHjx48ODBq5ynPcA/o54Hur2CIgKA4MGDBw8ePHh2edpP782o54HOpGARAUDw4MGDBw8ePPs8k+KfIQDGcwkAggcPHjx48OBVwzM9xdDcSYjgwYMHDx48eJXzTI8wLkUAEDx48ODBgwevWp5J8S9FAJi8OTx48ODBgwfPDS+g+MODBw8ePHjN4wUsDjx48ODBg9c8XsDiwIMHDx48eM3jBSwOPHjw4MGD1zxewOLAgwcPHjx4zeMFLA48ePDgwYPXMF4hAcBiw4MHDx48eLUo/voCgMWGBw8ePHjwalP89QQAiw0PHjx48ODVoPiHRQQAiw0PHjx48ODVo/hrCwAWGx48ePDgwatP8dcSAOGkAGCx4cGDBw8ePMHFP1cAhJMCgMWGBw8ePHjwZPLmEgADFhsePHjw4METzZtRzwPdXgGLDQ8ePHjw4AnkzajnQfRz5sypBfVaVK9l9TqmXivR/y+Y40f9u5vUa0O9bk69ov99Ezx48ODBgwevEl7033X1Wsus5/E/SgTAMsUfHjx48ODBE82L/u8TubyUAFii+MODBw8ePHjieetavJQAoPjDgwcPHjx4TeHNW/hZbHjw4MGDB68ePBYHHjx48ODBo/izOPDgwYMHDx7Fn8WGBw8ePHjwKP4sNjx48ODBg0fxhwcPHjx48OBR/OHBgwcPHjx4PhZ/7af/WGx48ODBgwevFrzE+l/bJGidxYYHDx48ePDEF/8lLQEQv/mJKf7CLDY8ePDgwYMnq/gn5/1kC4D4l9fib/8bLDY8ePDgwYMntvivxKf9Lmda/8e/vBp/+08EAIsNDx48ePDgyeOtxq8DAZCnFI6nBMA6iw0PHjx48OCJ463F9TwRAEt5PYLVlAA4wWLDgwcPHjx44nhJDU8EwHLWrf+lWCEkAmCNxYYHDx48ePDE8ZK794kAWMkq/ouxOjiW6hew2PDgwYMHD5483kZKAKzmDf2lBcCKtksQiw0PHjx48OD5xksEwFpmPY//0WLqGUGKPzx48ODBgyeXt6E1w5cSAEsUf3jw4MGDB088T+/pvZQAoPjDgwcPHjx4TeHNW/hZbHjw4MGDB68ePBYHHjx48ODBo/izOPDgwYMHDx7Fn8WGBw8ePHjwKP4sNjx48ODBg0fxhwcPHjx48OBR/OHBgwcPHjx4PhZ/7af/WGx48ODBgwevFrzE+l/bJGidxYYHDx48ePDEF/8lLQGQOk94g8WGBw8ePHjwRBf/5LyfbAEQ//Ja/O1/g8WGBw8ePHjwxBb/lfi03+VM6//4l1fjb//rqbOFWWx48ODBgwdPFm81fh0IgDylcDwlANZZbHjw4MGDB08cby2u54kAWMrrEaymBMAJFhsePHjw4METx0tqeCIAlrNu/S/FCiERAGssNjx48ODBgyeOl9y9TwTASlbxX4zVwbFUv4DFhgcPHjx48OTxNlICYDVv6C8tAFa0XYJYbHjw4MGDB883XiIA1jLrefyPFlPPCFL84cGDBw8ePLm8Da0ZvpQAWKL4w4MHDx48eOJ5ek/vpQQAxR8ePHjw4MFrCm/ews9iw4MHDx48ePXgsTjw4MGDBw8exZ/FgQcPHjx48Cj+h988fUbARgl2wfDgwYMHDx68CnnzvHn6jID1EuyC4cGDBw8ePHgV8uZ587WUv/CJEuyC4cGDBw8ePHgV8oq++ULqjIDjqcMFFuDBgwcPHjx4MngJs8ibr6TOCFg1tAuGBw8ePHjw4LnhLeqaBC2kzghIXsuGbw4PHjx48ODBq563pCUAUr+8nHotlfDm8ODBgwcPHjw3PC0BsHj0FRj8wIMHDx48ePC84C3kqYWbUq8FwzeHBw8ePHjw4HnC+/+xob0WVqI+PgAAAABJRU5ErkJggg==;" vertex="1" parent="1">
          <mxGeometry x="645" y="280" width="60" height="60" as="geometry" />
        </mxCell>
        <mxCell id="j5Z5QR9LnZ4kiU0xMkHO-29" value="" style="sketch=0;pointerEvents=1;shadow=0;dashed=0;html=1;strokeColor=none;fillColor=#505050;labelPosition=center;verticalLabelPosition=bottom;verticalAlign=top;outlineConnect=0;align=center;shape=mxgraph.office.servers.trusted_application_pool;" vertex="1" parent="1">
          <mxGeometry x="740.5" y="264.5" width="49.5" height="45.5" as="geometry" />
        </mxCell>
        <mxCell id="j5Z5QR9LnZ4kiU0xMkHO-30" value="" style="sketch=0;pointerEvents=1;shadow=0;dashed=0;html=1;strokeColor=none;fillColor=#505050;labelPosition=center;verticalLabelPosition=bottom;verticalAlign=top;outlineConnect=0;align=center;shape=mxgraph.office.servers.trusted_application_pool;" vertex="1" parent="1">
          <mxGeometry x="740.5" y="320" width="49.5" height="45.5" as="geometry" />
        </mxCell>
        <mxCell id="j5Z5QR9LnZ4kiU0xMkHO-31" value="" style="sketch=0;pointerEvents=1;shadow=0;dashed=0;html=1;strokeColor=none;fillColor=#505050;labelPosition=center;verticalLabelPosition=bottom;verticalAlign=top;outlineConnect=0;align=center;shape=mxgraph.office.servers.trusted_application_pool;" vertex="1" parent="1">
          <mxGeometry x="740.5" y="375.25" width="49.5" height="45.5" as="geometry" />
        </mxCell>
      </root>
    </mxGraphModel>
  </diagram>
</mxfile>
